999
"DXF R12 Output - Smoothed" (www.mydxf.blogspot.com)
 0 
SECTION
 2 
HEADER
 9 
$ACADVER
 1 
AC1009
 9 
$EXTMIN
 10 
 0 
 20 
 0 
 9 
$EXTMAX
 10 
 8.5 
 20 
 11 
 0 
ENDSEC
 0 
SECTION
 2 
ENTITIES
0
LINE
8
arc
10
20.000000
20
0.000000
11
19.562952
21
4.158234
0
LINE
8
arc
10
19.562952
20
4.158234
11
18.270909
21
8.134733
0
LINE
8
arc
10
18.270909
20
8.134733
11
16.180340
21
11.755705
0
LINE
8
arc
10
16.180340
20
11.755705
11
13.382612
21
14.862897
0
LINE
8
arc
10
13.382612
20
14.862897
11
10.000000
21
17.320508
0
LINE
8
arc
10
10.000000
20
17.320508
11
6.180340
21
19.021130
0
LINE
8
arc
10
6.180340
20
19.021130
11
2.090569
21
19.890438
0
LINE
8
arc
10
2.090569
20
19.890438
11
-2.090569
21
19.890438
0
LINE
8
arc
10
-2.090569
20
19.890438
11
-6.180340
21
19.021130
0
LINE
8
arc
10
-6.180340
20
19.021130
11
-10.000000
21
17.320508
0
LINE
8
arc
10
-10.000000
20
17.320508
11
-13.382612
21
14.862897
0
LINE
8
arc
10
-13.382612
20
14.862897
11
-16.180340
21
11.755705
0
LINE
8
arc
10
-16.180340
20
11.755705
11
-18.270909
21
8.134733
0
LINE
8
arc
10
-18.270909
20
8.134733
11
-19.562952
21
4.158234
0
LINE
8
arc
10
-19.562952
20
4.158234
11
-20.000000
21
0.000000
0
LINE
8
arc
10
-20.000000
20
0.000000
11
-19.562952
21
-4.158234
0
LINE
8
arc
10
-19.562952
20
-4.158234
11
-18.270909
21
-8.134733
0
LINE
8
arc
10
-18.270909
20
-8.134733
11
-16.180340
21
-11.755705
0
LINE
8
arc
10
-16.180340
20
-11.755705
11
-13.382612
21
-14.862897
0
LINE
8
arc
10
-13.382612
20
-14.862897
11
-10.000000
21
-17.320508
0
LINE
8
arc
10
-10.000000
20
-17.320508
11
-6.180340
21
-19.021130
0
LINE
8
arc
10
-6.180340
20
-19.021130
11
-2.090569
21
-19.890438
0
LINE
8
arc
10
-2.090569
20
-19.890438
11
2.090569
21
-19.890438
0
LINE
8
arc
10
2.090569
20
-19.890438
11
6.180340
21
-19.021130
0
LINE
8
arc
10
6.180340
20
-19.021130
11
10.000000
21
-17.320508
0
LINE
8
arc
10
10.000000
20
-17.320508
11
13.382612
21
-14.862897
0
LINE
8
arc
10
13.382612
20
-14.862897
11
16.180340
21
-11.755705
0
LINE
8
arc
10
16.180340
20
-11.755705
11
18.270909
21
-8.134733
0
LINE
8
arc
10
18.270909
20
-8.134733
11
19.562952
21
-4.158234
0
LINE
8
arc
10
19.562952
20
-4.158234
11
20.000000
21
-0.000000
 0 
ENDSEC
 0 
EOF
